<?xml version="1.0" encoding="utf-8"?>
<!-- Generator: Adobe Illustrator 23.0.3, SVG Export Plug-In . SVG Version: 6.00 Build 0)  -->
<svg version="1.1" id="Capa_1" xmlns="http://www.w3.org/2000/svg" xmlns:xlink="http://www.w3.org/1999/xlink" x="0px" y="0px"
	 viewBox="0 0 465 465" style="enable-background:new 0 0 465 465;" xml:space="preserve">
<style type="text/css">
	.st0{fill:#FFFF00;}
</style>
<g>
	<path class="st0" d="M142.5,35H345v47.5c0,4.1,3.4,7.5,7.5,7.5s7.5-3.4,7.5-7.5v-55v0v0v-20c0-4.1-3.4-7.5-7.5-7.5S345,3.4,345,7.5
		V20H142.5c-4.1,0-7.5,3.4-7.5,7.5S138.4,35,142.5,35z"/>
	<path class="st0" d="M432.5,20h-50c-4.1,0-7.5,3.4-7.5,7.5s3.4,7.5,7.5,7.5H425v95H40V35h65v47.5c0,4.1,3.4,7.5,7.5,7.5
		s7.5-3.4,7.5-7.5v-75c0-4.1-3.4-7.5-7.5-7.5S105,3.4,105,7.5V20H32.5c-4.1,0-7.5,3.4-7.5,7.5v370c0,4.1,3.4,7.5,7.5,7.5h330
		c0.3,0,0.5,0,0.7,0c0.2,0,0.4,0,0.5-0.1c0.1,0,0.1,0,0.2,0c0.2,0,0.4-0.1,0.6-0.2c0,0,0.1,0,0.1,0c0.2-0.1,0.4-0.1,0.6-0.2
		c0,0,0.1,0,0.1,0c0.2-0.1,0.4-0.2,0.6-0.3c0,0,0.1,0,0.1-0.1c0.2-0.1,0.3-0.2,0.5-0.3c0,0,0.1-0.1,0.2-0.1c0.1-0.1,0.3-0.2,0.4-0.3
		c0.1,0,0.1-0.1,0.2-0.1c0.2-0.1,0.3-0.3,0.5-0.4c0,0,0,0,0.1-0.1l70-70c0,0,0,0,0,0c0.2-0.2,0.3-0.3,0.5-0.5c0,0,0.1-0.1,0.1-0.1
		c0.1-0.1,0.2-0.3,0.3-0.4c0,0,0-0.1,0.1-0.1c0.1-0.2,0.2-0.3,0.3-0.5c0,0,0-0.1,0-0.1c0.1-0.2,0.2-0.4,0.3-0.6c0,0,0,0,0-0.1
		c0.1-0.2,0.2-0.4,0.2-0.6c0,0,0-0.1,0-0.1c0.1-0.2,0.1-0.4,0.2-0.6c0-0.1,0-0.1,0-0.2c0-0.2,0.1-0.4,0.1-0.5c0-0.2,0-0.5,0-0.7
		v-300C440,23.4,436.6,20,432.5,20z M40,145h385v175h-62.5c-4.1,0-7.5,3.4-7.5,7.5V390H40V145z M414.4,335L370,379.4V335H414.4z"/>
	<path class="st0" d="M432.5,450h-400c-4.1,0-7.5,3.4-7.5,7.5s3.4,7.5,7.5,7.5h400c4.1,0,7.5-3.4,7.5-7.5S436.6,450,432.5,450z"/>
	<path class="st0" d="M432.5,350c-4.1,0-7.5,3.4-7.5,7.5V420H40v-2.5c0-4.1-3.4-7.5-7.5-7.5s-7.5,3.4-7.5,7.5v10
		c0,4.1,3.4,7.5,7.5,7.5h400c4.1,0,7.5-3.4,7.5-7.5v-70C440,353.4,436.6,350,432.5,350z"/>
	<path class="st0" d="M289,207.1c-2.8-1.2-6-0.5-8.2,1.6l-21.4,21.4c-2.9,2.9-2.9,7.7,0,10.6c2.9,2.9,7.7,2.9,10.6,0l8.6-8.6V321
		c0,4.1,3.4,7.5,7.5,7.5s7.5-3.4,7.5-7.5V214C293.6,211,291.8,208.2,289,207.1z"/>
	<path class="st0" d="M206.8,206.5c-19.5,0-35.4,15.9-35.4,35.4c0,4.1,3.4,7.5,7.5,7.5s7.5-3.4,7.5-7.5c0-11.2,9.1-20.4,20.4-20.4
		c11.2,0,20.4,9.1,20.4,20.4c0,8.1-4.8,15.5-12.3,18.7c-2.8,1.2-4.5,3.9-4.5,6.9s1.8,5.7,4.5,6.9c7.5,3.2,12.3,10.6,12.3,18.7
		c0,11.2-9.1,20.4-20.4,20.4c-11.2,0-20.4-9.1-20.4-20.4c0-4.1-3.4-7.5-7.5-7.5s-7.5,3.4-7.5,7.5c0,19.5,15.9,35.4,35.4,35.4
		c19.5,0,35.4-15.9,35.4-35.4c0-9.9-4.1-19.1-11-25.6c6.9-6.6,11-15.8,11-25.6C242.2,222.4,226.3,206.5,206.8,206.5z"/>
</g>
</svg>
