<?xml version="1.0" encoding="utf-8"?>
<!-- Generator: Adobe Illustrator 23.0.3, SVG Export Plug-In . SVG Version: 6.00 Build 0)  -->
<svg version="1.1" id="Capa_1" xmlns="http://www.w3.org/2000/svg" xmlns:xlink="http://www.w3.org/1999/xlink" x="0px" y="0px"
	 viewBox="0 0 484.5 484.5" style="enable-background:new 0 0 484.5 484.5;" xml:space="preserve">
<style type="text/css">
	.st0{fill:#FFFF00;}
</style>
<g>
	<g id="directions-subway">
		<path class="st0" d="M242.3,0c-112.2,0-204,12.8-204,102v242.3c0,48.5,40.8,89.3,89.3,89.3l-38.3,38.3v12.8h306v-12.8L357,433.5
			c48.5,0,89.3-40.8,89.3-89.3V102C446.3,12.7,354.5,0,242.3,0z M127.5,382.5c-20.4,0-38.3-17.9-38.3-38.3s17.8-38.3,38.3-38.3
			s38.3,17.9,38.3,38.3S147.9,382.5,127.5,382.5z M216.8,229.5H89.3V102h127.5V229.5z M357,382.5c-20.4,0-38.3-17.9-38.3-38.3
			S336.6,306,357,306s38.3,17.9,38.3,38.3S377.4,382.5,357,382.5z M395.3,229.5H267.8V102h127.5V229.5z"/>
	</g>
</g>
</svg>
